<svg xmlns="http://www.w3.org/2000/svg" viewBox="0 0 200 200" width="200" height="200">
  <!-- Background circle -->
  <circle cx="100" cy="100" r="100" fill="#e0f2f1"/>
  <!-- Hair -->
  <ellipse cx="100" cy="72" rx="52" ry="48" fill="#4a3728"/>
  <ellipse cx="100" cy="55" rx="48" ry="32" fill="#5a4535"/>
  <!-- Face -->
  <ellipse cx="100" cy="95" rx="40" ry="42" fill="#fce4c8"/>
  <!-- Bangs -->
  <path d="M58 72 Q70 48 100 50 Q130 48 142 72 Q135 55 100 52 Q65 55 58 72Z" fill="#4a3728"/>
  <!-- Eyes -->
  <ellipse cx="82" cy="98" rx="5.5" ry="6" fill="#2d2d2d"/>
  <ellipse cx="118" cy="98" rx="5.5" ry="6" fill="#2d2d2d"/>
  <!-- Eye highlights -->
  <circle cx="84" cy="96" r="2" fill="#fff"/>
  <circle cx="120" cy="96" r="2" fill="#fff"/>
  <!-- Blush -->
  <ellipse cx="72" cy="108" rx="8" ry="5" fill="#ffb3b3" opacity="0.4"/>
  <ellipse cx="128" cy="108" rx="8" ry="5" fill="#ffb3b3" opacity="0.4"/>
  <!-- Smile -->
  <path d="M90 112 Q100 122 110 112" stroke="#c47a5a" stroke-width="2.2" fill="none" stroke-linecap="round"/>
  <!-- Pear emoji on head -->
  <text x="100" y="46" text-anchor="middle" font-size="22">🍐</text>
  <!-- Shoulders / top -->
  <path d="M55 148 Q60 135 100 132 Q140 135 145 148 L150 170 Q125 158 100 156 Q75 158 50 170 Z" fill="#7ecec5"/>
</svg>
